<?xml version="1.0" encoding="UTF-8" standalone="no"?>
<svg
   xmlns:dc="http://purl.org/dc/elements/1.1/"
   xmlns:cc="http://creativecommons.org/ns#"
   xmlns:rdf="http://www.w3.org/1999/02/22-rdf-syntax-ns#"
   xmlns:svg="http://www.w3.org/2000/svg"
   xmlns="http://www.w3.org/2000/svg"
   xmlns:sodipodi="http://sodipodi.sourceforge.net/DTD/sodipodi-0.dtd"
   xmlns:inkscape="http://www.inkscape.org/namespaces/inkscape"
   width="226.07907"
   height="96"
   version="1.1"
   id="svg12"
   sodipodi:docname="header.svg"
   inkscape:version="0.92.4 (5da689c313, 2019-01-14)"
   inkscape:export-filename="D:\git\pdf\docnet\assets\header.png"
   inkscape:export-xdpi="96"
   inkscape:export-ydpi="96">
  <metadata
     id="metadata18">
    <rdf:RDF>
      <cc:Work
         rdf:about="">
        <dc:format>image/svg+xml</dc:format>
        <dc:type
           rdf:resource="http://purl.org/dc/dcmitype/StillImage" />
        <dc:title></dc:title>
      </cc:Work>
    </rdf:RDF>
  </metadata>
  <defs
     id="defs16" />
  <sodipodi:namedview
     pagecolor="#ffffff"
     bordercolor="#666666"
     borderopacity="1"
     objecttolerance="10"
     gridtolerance="10"
     guidetolerance="10"
     inkscape:pageopacity="0"
     inkscape:pageshadow="2"
     inkscape:window-width="1847"
     inkscape:window-height="1034"
     id="namedview14"
     showgrid="false"
     inkscape:zoom="1.70875"
     inkscape:cx="35.579973"
     inkscape:cy="18.008399"
     inkscape:window-x="65"
     inkscape:window-y="-8"
     inkscape:window-maximized="1"
     inkscape:current-layer="svg12"
     fit-margin-top="0"
     fit-margin-left="0"
     fit-margin-right="0"
     fit-margin-bottom="0" />
  <path
     d="m 66.012,15.5 c 0,-0.527 -0.271,-0.99 -0.682,-1.258 L 49.477,0.637 C 49.327,0.508 49.153,0.426 48.972,0.366 48.709,0.141 48.373,0 48,0 H 1.5 C 0.671,0 0,0.671 0,1.5 v 93 C 0,95.328 0.671,96 1.5,96 h 63 C 65.328,96 66,95.328 66,94.5 V 16 c 0,-0.067 -0.011,-0.13 -0.02,-0.195 0.021,-0.098 0.032,-0.201 0.032,-0.305 z M 3,93 V 3 h 44 v 12.5 c 0,0.829 0.672,1.5 1.5,1.5 H 63 v 76 z"
     id="path2"
     inkscape:connector-curvature="0" />
  <path
     d="M 52,29 H 14 c -0.552,0 -1,-0.448 -1,-1 0,-0.552 0.448,-1 1,-1 h 38 c 0.553,0 1,0.448 1,1 0,0.552 -0.447,1 -1,1 z"
     id="path4"
     inkscape:connector-curvature="0" />
  <path
     d="M 52,43 H 14 c -0.552,0 -1,-0.448 -1,-1 0,-0.552 0.448,-1 1,-1 h 38 c 0.553,0 1,0.448 1,1 0,0.552 -0.447,1 -1,1 z"
     id="path6"
     inkscape:connector-curvature="0" />
  <path
     d="M 52,55 H 14 c -0.552,0 -1,-0.447 -1,-1 0,-0.553 0.448,-1 1,-1 h 38 c 0.553,0 1,0.447 1,1 0,0.553 -0.447,1 -1,1 z"
     id="path8"
     inkscape:connector-curvature="0" />
  <path
     d="M 52,69 H 14 c -0.552,0 -1,-0.447 -1,-1 0,-0.553 0.448,-1 1,-1 h 38 c 0.553,0 1,0.447 1,1 0,0.553 -0.447,1 -1,1 z"
     id="path10"
     inkscape:connector-curvature="0" />
  <flowRoot
     xml:space="preserve"
     id="flowRoot4529"
     style="font-style:normal;font-weight:normal;font-size:40px;line-height:1.25;font-family:sans-serif;letter-spacing:0px;word-spacing:0px;fill:#000000;fill-opacity:1;stroke:none"
     transform="translate(-17,-2)"><flowRegion
       id="flowRegion4531"><rect
         id="rect4533"
         width="99.152542"
         height="56.779659"
         x="90.254234"
         y="42.372883" /></flowRegion><flowPara
       id="flowPara4535">DocNet</flowPara></flowRoot>  <flowRoot
     xml:space="preserve"
     id="flowRoot4537"
     style="font-style:normal;font-weight:normal;font-size:40px;line-height:1.25;font-family:sans-serif;letter-spacing:0px;word-spacing:0px;fill:#000000;fill-opacity:1;stroke:none"
     transform="translate(-63.232623,51.255303)"><flowRegion
       id="flowRegion4539"><rect
         id="rect4541"
         width="284.41843"
         height="110.02194"
         x="142.79443"
         y="8.1199713" /></flowRegion><flowPara
       id="flowPara4543"
       style="font-style:normal;font-variant:normal;font-weight:bold;font-stretch:normal;font-family:Roboto;-inkscape-font-specification:'Roboto Bold'">DocNET</flowPara></flowRoot></svg>
